<svg width="16" height="16" viewBox="0 0 16 16" fill="none" xmlns="http://www.w3.org/2000/svg">
  <g clip-path="url(#clip0_2439_7388)">
    <path d="M9.83752 4.2749H16V7.9999H9.83752V4.2749Z" fill="black" fill-opacity="0.88"/>
    <path d="M9.83752 8H16V11.725H9.83752V8Z" fill="#107C41"/>
    <path d="M3.6875 4.2749H9.8375V7.9999H3.6875V4.2749Z" fill="#107C41"/>
    <path d="M9.83745 11.725V8H3.69995V11.725V12.2625V14.7125C3.69995 15.1125 4.02495 15.4375 4.42495 15.4375H15.2625C15.6625 15.4375 15.9875 15.1125 15.9875 14.7125V11.725H9.83745Z" fill="#185B37"/>
    <path d="M15.2625 0.5625H9.82495V4.2875H16V1.2875C15.9875 0.8875 15.6625 0.5625 15.2625 0.5625Z" fill="#33C481"/>
    <path d="M9.83752 0.5625H4.43752C4.03752 0.5625 3.71252 0.8875 3.71252 1.2875V4.275H9.85002V0.5625H9.83752Z" fill="#21A365"/>
    <path d="M7.43745 12.0625H0.812451C0.374951 12.0625 0.0124512 11.7 0.0124512 11.2625V4.7375C0.0124512 4.3 0.374951 3.9375 0.812451 3.9375H7.43745C7.87495 3.9375 8.23745 4.3 8.23745 4.7375V11.2625C8.23745 11.7 7.88745 12.0625 7.43745 12.0625Z" fill="#17864C"/>
    <path d="M5.06255 10.3L4.57505 9.4125C4.37505 9.0625 4.25005 8.825 4.11255 8.5625H4.10005C3.98755 8.825 3.87505 9.0625 3.68755 9.4125L3.25005 10.3H2.30005L3.65005 8.0375L2.33755 5.8125H3.30005L3.78755 6.7375C3.93755 7.0125 4.05005 7.2375 4.16255 7.4875H4.18755C4.31255 7.2125 4.40005 7.0125 4.55005 6.7375L5.03755 5.8125H5.98755L4.65005 8L6.03755 10.3H5.06255Z" fill="white"/>
    <path opacity="0.2" d="M8.33755 4.6626V4.7376V11.2626C8.33755 11.7001 7.97505 12.0626 7.53755 12.0626H3.80005V12.7751H8.20005C8.63755 12.7751 9.00005 12.4126 9.00005 11.9751V5.4501C9.01255 5.0501 8.71255 4.7126 8.33755 4.6626Z" fill="black"/>
  </g>
  <defs>
    <clipPath id="clip0_2439_7388">
      <rect width="16" height="16" fill="white"/>
    </clipPath>
  </defs>
</svg>
