<svg width="16" height="16" viewBox="0 0 16 16" fill="none" xmlns="http://www.w3.org/2000/svg">
  <path d="M4 0C3.45 0 3 0.45 3 1V15C3 15.55 3.45 16 4 16H14C14.55 16 15 15.55 15 15V4L11 0H4Z" fill="#EBF0E6"/>
  <path d="M12 4H15L11 0V3C11 3.55 11.45 4 12 4Z" fill="#B0B7BD"/>
  <path d="M15 7L12 4H15V7Z" fill="#CAD1D8"/>
  <path d="M13 13C13 13.275 12.775 13.5 12.5 13.5H1.5C1.225 13.5 1 13.275 1 13V8C1 7.725 1.225 7.5 1.5 7.5H12.5C12.775 7.5 13 7.725 13 8V13Z" fill="#F15642"/>
  <path d="M3.17944 9.47351C3.17944 9.34151 3.28344 9.19751 3.45094 9.19751H4.37444C4.89444 9.19751 5.36244 9.54551 5.36244 10.2125C5.36244 10.8445 4.89444 11.1965 4.37444 11.1965H3.70694V11.7245C3.70694 11.9005 3.59494 12 3.45094 12C3.31894 12 3.17944 11.9005 3.17944 11.7245V9.47351ZM3.70694 9.70101V10.697H4.37444C4.64244 10.697 4.85444 10.4605 4.85444 10.2125C4.85444 9.93301 4.64244 9.70101 4.37444 9.70101H3.70694Z" fill="white"/>
  <path d="M6.14538 11.9999C6.01338 11.9999 5.86938 11.9279 5.86938 11.7524V9.4814C5.86938 9.3379 6.01338 9.2334 6.14538 9.2334H7.06088C8.88788 9.2334 8.84788 11.9999 7.09688 11.9999H6.14538ZM6.39738 9.7214V11.5124H7.06088C8.14038 11.5124 8.18838 9.7214 7.06088 9.7214H6.39738Z" fill="white"/>
  <path d="M9.4959 9.75341V10.3889H10.5154C10.6594 10.3889 10.8034 10.5329 10.8034 10.6724C10.8034 10.8044 10.6594 10.9124 10.5154 10.9124H9.4959V11.7519C9.4959 11.8919 9.3964 11.9994 9.2564 11.9994C9.0804 11.9994 8.9729 11.8919 8.9729 11.7519V9.48091C8.9729 9.33741 9.0809 9.23291 9.2564 9.23291H10.6599C10.8359 9.23291 10.9399 9.33741 10.9399 9.48091C10.9399 9.60891 10.8359 9.75291 10.6599 9.75291H9.4959V9.75341Z" fill="white"/>
  <path d="M12.5 13.5H3V14H12.5C12.775 14 13 13.775 13 13.5V13C13 13.275 12.775 13.5 12.5 13.5Z" fill="#CAD1D8"/>
</svg>
